<?xml version="1.0" encoding="UTF-8"?>
<!-- Generator: Adobe Illustrator 25.4.1, SVG Export Plug-In . SVG Version: 6.00 Build 0)  -->
<svg xmlns="http://www.w3.org/2000/svg" xmlns:xlink="http://www.w3.org/1999/xlink" version="1.1" id="Capa_1" x="0px" y="0px" viewBox="0 0 132.43 67.95" style="enable-background:new 0 0 132.43 67.95;" xml:space="preserve">
<style type="text/css">
	.st0{fill:#05D8BA;}
	.st1{fill:#006FC1;}
	.st2{fill:#05576D;}
</style>
<ellipse class="st0" cx="60.95" cy="8.15" rx="4.94" ry="5.74"></ellipse>
<ellipse class="st1" cx="72.18" cy="6.45" rx="4.94" ry="5.74"></ellipse>
<path class="st2" d="M22.24,59.22c-0.52,0.5-1.08,0.94-1.69,1.32c-0.69,0.42-1.41,0.75-2.17,0.99s-1.56,0.36-2.37,0.36  c-1.32,0-2.55-0.27-3.7-0.81s-2.14-1.26-2.98-2.15c-0.84-0.9-1.52-1.94-2.02-3.12s-0.75-2.44-0.75-3.76c0-1.29,0.25-2.54,0.75-3.74  s1.17-2.25,2.02-3.14c0.84-0.9,1.84-1.61,2.98-2.15c1.15-0.54,2.38-0.81,3.7-0.81c0.82,0,1.61,0.12,2.37,0.36  c0.76,0.24,1.49,0.57,2.17,0.99c0.62,0.38,1.18,0.82,1.7,1.31l3.74-3.95c-0.72-0.64-1.48-1.23-2.3-1.73  c-1.12-0.67-2.33-1.19-3.64-1.56c-1.3-0.37-2.66-0.55-4.05-0.55c-2.06,0-3.99,0.4-5.81,1.19s-3.41,1.87-4.76,3.22  C4.07,42.85,3,44.44,2.21,46.25S1.02,50,1.02,52.06s0.4,3.99,1.19,5.81s1.86,3.41,3.22,4.76c1.36,1.36,2.94,2.43,4.76,3.22  s3.76,1.19,5.81,1.19c1.4,0,2.75-0.18,4.05-0.55c1.3-0.37,2.52-0.89,3.64-1.56c0.83-0.5,1.58-1.09,2.3-1.73L22.24,59.22z"></path>
<path class="st2" d="M82.3,49.68h-4.03v-4.25h4.03v-3.15c0-1.27,0.14-2.49,0.42-3.65c0.28-1.17,0.75-2.19,1.42-3.08  c0.66-0.89,1.54-1.59,2.64-2.1c1.09-0.52,2.47-0.77,4.12-0.77c0.59,0,1.09,0.02,1.48,0.07c0.4,0.04,0.8,0.13,1.22,0.24  c0,0-1.3,4.32-1.31,4.3c-0.34-0.06-0.7-0.09-1.09-0.09c-0.77,0-1.39,0.15-1.86,0.44c-0.47,0.3-0.83,0.68-1.09,1.15  c-0.25,0.47-0.42,0.99-0.51,1.55c-0.09,0.56-0.13,1.11-0.13,1.64v3.46h4.92v4.25h-4.92V66.7H82.3V49.68z"></path>
<path class="st2" d="M38.61,40.02c0-0.92,0.32-1.71,0.95-2.39s1.44-1.02,2.41-1.02s1.79,0.32,2.46,0.97c0.66,0.65,1,1.46,1,2.44  s-0.33,1.79-1,2.44c-0.66,0.65-1.48,0.97-2.46,0.97c-0.97,0-1.78-0.34-2.41-1.02C38.93,41.74,38.61,40.94,38.61,40.02z"></path>
<polygon class="st2" points="39.37,46.47 44.69,45.48 44.69,66.74 39.37,66.74 "></polygon>
<path class="st2" d="M70.27,46.47l5.32-0.99v21.26h-5.32V46.47z"></path>
<g>
	<path class="st2" d="M47.59,54.65v12.09h5.36V54.68l0,0c0-0.01,0-0.02,0-0.03c0-0.02,0-0.04,0-0.06c0.03-2.47,2.04-4.46,4.51-4.46   c2.49,0,4.52,2.02,4.52,4.52h-0.01v12.09h5.36V54.65l0,0c0-5.45-4.42-9.87-9.87-9.87S47.59,49.2,47.59,54.65L47.59,54.65z"></path>
</g>
<path class="st2" d="M36.52,62.39c-0.28,0.04-0.55,0.06-0.81,0.06c-1.18,0-1.94-0.31-2.28-0.93s-0.51-1.4-0.51-2.35V32.62  l-5.23,0.99v25.61c0,1.03,0.1,2,0.29,2.9s0.55,1.7,1.06,2.39c0.52,0.69,1.22,1.24,2.1,1.64c0.89,0.4,2.04,0.6,3.45,0.6  c0.59,0,1.21-0.05,1.86-0.15c0.02,0,0.03-0.01,0.05-0.01v-4.2H36.52z"></path>
<path class="st2" d="M115.56,50.68c-0.52-1.43-1.23-2.63-2.15-3.59s-2-1.68-3.26-2.17s-2.62-0.73-4.1-0.73  c-1.59,0-3.08,0.27-4.45,0.82s-2.56,1.31-3.57,2.3c-1,0.99-1.79,2.19-2.37,3.59c-0.58,1.4-0.86,2.96-0.86,4.67  c0,1.74,0.29,3.3,0.86,4.67c0.58,1.37,1.37,2.53,2.39,3.48c1.02,0.95,2.22,1.68,3.61,2.19c1.39,0.52,2.91,0.78,4.56,0.78  c2.7,0,5.61-0.76,8.19-3.02l-2.9-3.43c-0.46,0.48-1.72,1.25-1.97,1.38c-0.92,0.49-2.04,0.73-3.37,0.73c-0.77,0-1.51-0.13-2.21-0.4  c-0.71-0.27-1.34-0.63-1.9-1.09c-0.56-0.46-1.01-1-1.35-1.64c-0.34-0.63-0.54-1.34-0.6-2.1c-0.19-2.07,0-3.81,0-3.81  c0.12-1.51,0.73-2.74,1.84-3.7c1.11-0.96,2.46-1.44,4.05-1.44c0.86,0,1.6,0.14,2.24,0.42c0.63,0.28,1.16,0.66,1.57,1.13  c0.41,0.47,0.72,1.02,0.91,1.64s0.29,1.27,0.29,1.95h-9.08v3.81h14.35c0.03-0.24,0.04-0.47,0.04-0.71s0-0.47,0-0.71  C116.33,53.79,116.08,52.11,115.56,50.68z"></path>
<path class="st2" d="M131.41,45.53c-0.74-0.01-1.76-0.03-2.79-0.03c-5.45,0-9.87,4.42-9.87,9.87v11.36h5.36V55.37  c0-2.49,2.02-4.74,4.52-4.74c0.05,0,2.79,0.01,2.79-0.02L131.41,45.53L131.41,45.53z"></path>
<path class="st0" d="M64.43,32.69c2.43-2.69,5.87,0.72,5.88,0.07c0.04-1.94,0.67-2.78,1.35-3.26c0.14-0.1,0.15-0.26-0.05-0.25  c-1.3,0.11-2.15-0.12-2.86-0.62c-0.34-0.24-0.34-0.77,0.01-0.99c0.84-0.54,1.41-1.13,1.55-2.19c0.09-0.65,0-1.02-0.53-1.45  c-0.29-0.24-0.84-0.66-1.14-0.88c-1.92-1.44-3.5-2.74-5-4.73c-0.98-1.31-1.43-2.73-0.95-3.87c0.01-0.02,0.01-0.05,0-0.07  c-0.46-0.79-4.1,1.85-4.84,2.62c-1.64,1.68-3.76,4.41-3.27,9.67c1.07,11.3,13.39,16.14,17.5,17.52c0.09,0.03,0.15-0.1,0.06-0.14  C68.81,42.47,60.03,37.56,64.43,32.69z"></path>
<path class="st1" d="M71.36,13.88c-5.73-0.91-8.32,0.29-7.58,2.61c0.51,1.6,2.73,4.09,5.81,6.05c2.93,1.86,1.39,4.42,0.54,5.2  c-0.24,0.22-0.4,0.43-0.08,0.48c0.98,0.17,2.25,0.02,3.54,0.05c0.13-0.08,0.25-0.17,0.39-0.24l0.19-0.1c0.1-0.05,0.2-0.1,0.29-0.17  c0.29-0.18,0.33-0.26,0.33-0.27c0,0,0.02-0.09-0.1-0.4l-0.33-0.9c-0.38-1.01-0.34-1.98,0.13-2.88c0.11-0.21,0.21-0.42,0.32-0.64  c0.2-0.4,0.39-0.79,0.61-1.18c0.19-0.34,0.52-0.46,0.72-0.53c0.03-0.01,0.07-0.02,0.1-0.04c0.22-0.11,0.47-0.11,0.69,0  c0.21,0.11,0.37,0.31,0.4,0.55c0.01,0.04,0.02,0.07,0.03,0.11c0.06,0.19,0.15,0.5,0.03,0.85c-0.15,0.42-0.34,0.81-0.53,1.2L76.69,24  c-0.31,0.66-0.3,1.2,0.04,1.74c0.09,0.14,0.17,0.3,0.24,0.46c0.5,1.06,0.42,2.1-0.2,2.93c0.63,0.42,1.19,1.03,1.62,1.94  c1.43,2.99-1.62,9.26-3.17,12.12c-0.07,0.12,0.11,0.24,0.19,0.12c2.13-2.8,6.27-8.6,7.23-13.88C84.04,21.67,79.21,15.13,71.36,13.88  z"></path>
<path class="st2" d="M75.8,38.24c-0.26,1.2-0.67,2.11-1.48,2.79c-1.07,0.9-2.3,0.66-2.96-0.57c-1.02-1.91-0.14-5.23,1.76-6.06  c0.14-0.06,0.3-0.32,0.27-0.46c-0.07-0.44-0.15-0.89-0.35-1.28c-0.87-1.78-0.47-3.03,1.29-3.95c0.18-0.1,0.37-0.19,0.54-0.3  c0.7-0.44,0.81-0.79,0.53-1.55c-0.11-0.3-0.22-0.6-0.33-0.9c-0.29-0.77-0.3-1.53,0.09-2.28c0.31-0.6,0.59-1.21,0.92-1.8  c0.08-0.14,0.34-0.18,0.51-0.27c0.03,0.2,0.15,0.42,0.09,0.59c-0.19,0.51-0.44,0.99-0.67,1.48c-0.4,0.84-0.42,1.66,0.08,2.46  c0.07,0.11,0.13,0.23,0.18,0.35c0.54,1.14,0.26,2.14-0.78,2.83c-0.34,0.23-0.71,0.43-1.03,0.68c-0.62,0.48-0.77,1-0.39,1.68  c0.48,0.87,0.86,1.74,0.76,2.77c-0.01,0.09,0.06,0.22,0.13,0.29C75.97,35.81,75.98,37.09,75.8,38.24z"></path>
</svg>
